<?xml version="1.0" encoding="UTF-8"?>
<svg id="Layer_1" data-name="Layer 1" xmlns="http://www.w3.org/2000/svg" viewBox="0 0 489.39 302.47">
  <defs>
    <style>
      .cls-1 {
        stroke: #000;
        stroke-width: .87px;
      }
    </style>
  </defs>
  <path class="cls-1" d="M396.15,301.85c-4.87-.95-10.97-3.02-14.95-5.1-7.71-3.98-9.97-7.89-7.11-12.22,1.43-2.14,7.18-6.64,8.54-6.64.65,0,2.79,1.07,4.74,2.37,4.98,3.32,10.03,4.74,16.72,4.74s9.08-1.01,12.34-4.63c1.78-2.02,4.03-5.87,4.03-7,0-.71-2.61-.06-4.39,1.12-3.02,2.08-8.31,3.02-15,2.67-9.32-.53-15.84-3.8-20.05-10.14-3.62-5.52-3.86-7.42-3.86-33.1,0-27.11-.65-24.85,7.53-24.85,3.62,0,5.57.24,5.99.77.42.47.71,7.77.83,20.58.18,18.8.24,19.99,1.43,22.54.71,1.48,1.9,3.26,2.67,3.98,3.02,2.73,10.03,3.98,14,2.49,2.73-1.01,6.05-4.69,7.29-8.07,1.12-3.08,1.19-4.69,1.19-51.84,0-53.33.18-50.78-3.62-54.27-1.12-1.01-7.35-5.7-13.88-10.38-23.07-16.55-41.11-29.54-80.08-57.78-12.16-8.78-26.99-19.58-32.98-23.85-5.99-4.33-18.09-13.11-26.87-19.45-19.99-14.53-18.27-14.12-28.77-6.05-3.98,2.97-8.49,6.35-10.03,7.42-2.61,1.84-11.45,8.25-16.9,12.34-3.5,2.61-18.27,13.52-36.54,26.93-8.54,6.35-16.55,12.28-17.79,13.17-1.19.89-3.44,2.55-5.1,3.74-1.6,1.19-3.62,2.61-4.45,3.26-.83.6-8.01,5.81-16.02,11.63-8.01,5.75-16.67,12.16-19.28,14.12-2.61,2.02-6.46,4.8-8.6,6.23-2.14,1.48-6.7,4.8-10.2,7.42-3.5,2.67-8.96,6.64-12.1,8.9-3.08,2.32-6.11,4.98-6.64,5.93-.89,1.6-1.01,4.21-1.01,21.3v19.51l1.66,1.43c1.6,1.36,1.9,1.43,12.22,1.43,11.98,0,15.42.47,20.65,2.97,5.04,2.32,9.08,6.23,11.51,11.15,1.9,3.74,2.02,4.39,2.02,9.9,0,4.87-.24,6.64-1.43,9.73-2.02,5.28-6.29,9.73-12.52,13.05-3.68,1.96-4.8,2.79-4.57,3.62.24.89,10.03,17.2,15.48,25.68,2.79,4.39,3.15,5.93,1.6,7.47-1.12,1.12-1.9,1.25-9.9,1.25h-8.72l-1.84-1.96c-1.01-1.12-5.34-7.89-9.67-15-10.03-16.67-9.73-16.37-12.81-16.14-3.8.29-3.98,1.01-3.98,16.31,0,13.05,0,13.17-1.43,14.83-1.3,1.48-1.84,1.66-6.11,1.84-5.46.29-8.42-.65-10.08-3.2-.95-1.48-1.07-3.32-1.25-15.48l-.24-13.82-1.78-1.48c-1.6-1.36-2.19-1.48-7.89-1.48-7.53,0-7.42.12-7.42-8.18,0-4.74.18-6.05,1.01-6.7.6-.53,2.97-.89,6.94-1.01,5.52-.18,6.11-.36,7.59-1.78l1.66-1.54v-26.75c0-25.21-.06-26.87-1.07-27.76-1.96-1.78-5.28-1.3-8.66,1.25-4.39,3.26-14.48,10.73-17.56,13.05-4.63,3.38-7.47,4.45-11.09,4.15-6.53-.53-10.2-5.99-8.84-13.23.71-3.86,1.48-4.45,30.31-25.8,3.26-2.43,15.42-11.45,26.99-20.11C112.59,86.64,217.93,8.76,222.91,5.49c5.16-3.44,9.37-4.63,17.56-4.98,10.32-.47,15.72,1.01,23.78,6.7,8.72,6.11,31.56,22.37,46.98,33.39,8.96,6.41,20.23,14.41,25.03,17.86,4.87,3.44,22.06,15.72,38.32,27.34,33.75,24.14,52.61,37.61,80.85,57.71,27.76,19.75,30.84,22.19,32.27,24.97,2.84,5.57.65,13.11-4.57,15.66-3.26,1.6-8.66,1.66-11.98.12-1.3-.6-7.29-4.74-13.35-9.19-9.32-6.82-11.27-8.07-13.11-8.07-1.43,0-2.49.42-3.26,1.25-1.07,1.19-1.12,3.2-1.43,54.45-.36,57.42-.24,55.52-3.56,62.46-3.08,6.59-9.73,12.4-17.38,15.31-3.15,1.12-4.98,1.36-12.58,1.54-4.87.06-9.55,0-10.38-.12l.05-.04ZM89.49,224.38c4.87-2.49,5.99-7.65,2.61-11.74-2.19-2.55-4.74-3.08-13.7-2.84-6.59.12-7.95.36-9.01,1.3-2.79,2.55-3.02,8.96-.47,11.98,1.72,1.96,4.03,2.49,11.69,2.55,5.39.06,6.63-.12,8.88-1.25h0Z"/>
  <path class="cls-1" d="M140.61,277.29c-13.05-3.44-21.95-12.22-25.39-25.09-1.12-4.15-1.07-12.76.12-17.26,2.19-8.6,8.72-17.08,15.96-20.94,5.99-3.15,9.19-3.8,19.75-4.15,9.37-.36,9.79-.29,14.71,1.3,9.14,2.97,16.02,8.84,20.11,17.08,8.54,17.38,2.08,37.84-14.53,46.03-2.79,1.36-6.88,2.84-9.19,3.32-5.93,1.25-16.2,1.07-21.54-.29h0ZM161.2,258.61c6.23-3.38,9.37-9.08,8.84-15.96-.83-9.67-7.42-15.78-17.14-15.78-6.11,0-10.08,1.3-13.41,4.33-3.86,3.5-5.52,7.35-5.52,12.58.06,10.62,7.59,17.14,19.28,16.72,3.91-.17,5.33-.47,7.95-1.89h0Z"/>
  <path class="cls-1" d="M285.82,278.06c-.83-.12-3.2-.77-5.34-1.43-19.51-6.11-28.83-29.66-19.34-48.88,3.98-7.95,9.9-13.17,18.75-16.37,4.33-1.54,6.17-1.84,12.76-2.14,8.01-.36,10.5.06,16.96,2.55l2.79,1.07,1.9-1.6c1.72-1.48,2.26-1.6,7.42-1.6s5.7.12,6.23,1.12c.36.77.6,12.16.6,32.92v31.74l-1.3.89c-.95.71-2.79.95-6.46.95-4.69,0-5.34-.18-6.94-1.48-2.14-1.78-3.02-1.84-5.93-.36-3.98,2.02-9.14,3.02-15,2.97-3.08-.06-6.23-.24-7.06-.36h-.04ZM302.14,259.02c6.11-2.91,9.9-8.54,9.97-14.89.06-7-3.44-12.93-9.37-15.84-2.97-1.43-3.74-1.54-8.78-1.3-7.65.36-11.92,2.91-15.13,9.01-2.08,4.09-2.26,11.27-.29,14.95,2.02,3.8,4.09,5.93,7.11,7.42,5.92,2.84,11.33,3.08,16.49.65h0Z"/>
  <path class="cls-1" d="M209.9,276.76c-8.01-1.72-17.79-6.64-17.79-8.96,0-.6,1.66-3.62,3.74-6.64,2.61-3.91,4.09-5.57,5.04-5.7.77-.12,3.32.71,5.63,1.9,5.93,2.91,10.32,3.91,17.03,3.91,6.23,0,8.84-.89,10.86-3.68,1.07-1.43,1.12-1.78.42-3.5-1.19-2.84-3.44-3.5-12.58-3.5-13.88-.06-19.75-1.54-24.61-6.46-3.68-3.74-5.1-7.95-4.8-14.35.29-6.59,2.26-10.26,7.35-14.24,5.93-4.51,9.79-5.4,23.49-5.52,11.09-.06,11.63,0,16.25,1.6,5.57,1.9,10.62,4.8,12.28,7,.95,1.36,1.01,1.78.42,2.97-.95,1.72-8.25,10.03-9.19,10.38-.36.18-2.08-.65-3.74-1.78-1.72-1.12-4.63-2.61-6.46-3.32-4.03-1.48-13.17-2.32-15.18-1.3-.71.36-2.08.89-3.02,1.12-2.55.77-4.21,3.2-3.38,4.87,1.54,2.84,3.08,3.2,14.83,3.68,7.06.24,12.04.71,13.82,1.3,9.49,3.02,14.65,10.38,14,19.99-.77,10.14-7.53,17.03-19.93,20.23-5.87,1.48-17.32,1.48-24.44,0h-.04Z"/>
  <path class="cls-1" d="M335.05,276.11c-1.19-1.19-1.19-1.96-1.19-33.1s.06-32.03,1.07-32.98c1.01-.89,2.97-.95,18.86-.83l17.74.18.18,7.95c.06,4.8-.06,8.18-.47,8.66-.36.42-2.97.83-6.82,1.07-7,.42-9.73,1.36-11.8,4.21-2.55,3.44-2.73,4.98-2.73,24.74,0,22.89.6,21.3-8.01,21.3-4.87,0-5.81-.18-6.82-1.19h0Z"/>
</svg>